<?xml version="1.0" encoding="iso-8859-1"?>
<!-- Generator: Adobe Illustrator 19.0.0, SVG Export Plug-In . SVG Version: 6.00 Build 0)  -->
<svg version="1.1" id="Layer_1" xmlns="http://www.w3.org/2000/svg" xmlns:xlink="http://www.w3.org/1999/xlink" x="0px" y="0px"
	 viewBox="0 0 512 512" style="enable-background:new 0 0 512 512;" xml:space="preserve">
<path style="fill:#FFBAA8;" d="M191.676,293.919H359.98c24.289,0,43.978,19.69,43.978,43.978v76.211
	c0,24.289-19.69,43.978-43.978,43.978h-97.121l-69.515,43.238v-43.237h-1.668c-24.289,0-43.978-19.69-43.978-43.978v-76.211
	C147.698,313.609,167.388,293.919,191.676,293.919z"/>
<path style="fill:#FFCF70;" d="M252.063,174.328h183.074c26.42,0,47.838,21.418,47.838,47.838v82.898
	c0,26.42-21.418,47.838-47.838,47.838H329.494l-75.616,59.67v-59.67h-1.814c-26.42,0-47.838-21.418-47.838-47.838v-82.898
	C204.227,195.745,225.644,174.328,252.063,174.328z"/>
<path style="fill:#ECF0F1;" d="M312.075,10.678H87.664c-32.386,0-58.639,26.253-58.639,58.639v101.617
	c0,32.386,26.253,58.639,58.639,58.639h129.497l92.69,73.143v-73.144h2.224c32.386,0,58.639-26.253,58.639-58.639V69.317
	C370.715,36.931,344.461,10.678,312.075,10.678z"/>
<g>
	<path style="fill:#231F20;" d="M92.38,87.736h54.101c5.896,0,10.678-4.782,10.678-10.678s-4.782-10.678-10.678-10.678H92.38
		c-5.896,0-10.678,4.782-10.678,10.678S86.484,87.736,92.38,87.736z"/>
	<path style="fill:#231F20;" d="M92.38,130.447h44.847c5.896,0,10.678-4.782,10.678-10.678s-4.782-10.678-10.678-10.678H92.38
		c-5.896,0-10.678,4.782-10.678,10.678S86.484,130.447,92.38,130.447z"/>
	<path style="fill:#231F20;" d="M169.26,130.447h28.474c5.896,0,10.678-4.782,10.678-10.678s-4.782-10.678-10.678-10.678H169.26
		c-5.896,0-10.678,4.782-10.678,10.678S163.364,130.447,169.26,130.447z"/>
	<path style="fill:#231F20;" d="M307.359,109.092h-60.863c-5.896,0-10.678,4.782-10.678,10.678s4.782,10.678,10.678,10.678h60.863
		c5.896,0,10.678-4.782,10.678-10.678S313.256,109.092,307.359,109.092z"/>
	<path style="fill:#231F20;" d="M318.037,162.481c0-5.896-4.782-10.678-10.678-10.678H92.38c-5.896,0-10.678,4.782-10.678,10.678
		c0,5.896,4.782,10.678,10.678,10.678h214.979C313.256,173.159,318.037,168.377,318.037,162.481z"/>
	<path style="fill:#231F20;" d="M189.548,87.736h117.811c5.896,0,10.678-4.782,10.678-10.678s-4.782-10.678-10.678-10.678H189.548
		c-5.896,0-10.678,4.782-10.678,10.678S183.652,87.736,189.548,87.736z"/>
	<path style="fill:#231F20;" d="M421.256,248.971h-72.075c-5.896,0-10.678,4.782-10.678,10.678c0,5.896,4.782,10.678,10.678,10.678
		h72.075c5.896,0,10.678-4.781,10.678-10.678C431.934,253.752,427.153,248.971,421.256,248.971z"/>
	<path style="fill:#231F20;" d="M421.256,292.393h-46.982c-5.896,0-10.678,4.781-10.678,10.678c0,5.896,4.782,10.678,10.678,10.678
		h46.982c5.896,0,10.678-4.781,10.678-10.678C431.934,297.175,427.153,292.393,421.256,292.393z"/>
	<path style="fill:#231F20;" d="M435.137,163.651h-53.745V69.317C381.392,31.096,350.297,0,312.075,0H87.664
		C49.442,0,18.348,31.096,18.348,69.317v101.616c0,38.221,31.095,69.317,69.316,69.317h105.884v42.992h-1.872
		c-30.138,0-54.656,24.518-54.656,54.655v76.211c0,27.069,19.781,49.606,45.646,53.913v33.301c0,3.878,2.102,7.451,5.492,9.333
		c1.616,0.898,3.402,1.344,5.186,1.344c1.959,0,3.917-0.539,5.639-1.611l66.926-41.625h94.071c30.138,0,54.656-24.518,54.656-54.656
		v-50.528h20.5c32.265,0,58.515-26.25,58.515-58.515v-82.899C493.652,189.9,467.402,163.651,435.137,163.651z M39.703,170.933
		V69.317c0-26.447,21.516-47.961,47.96-47.961h224.412c26.447,0,47.961,21.515,47.961,47.961v101.616
		c0,26.447-21.515,47.961-47.961,47.961h-2.224c-5.896,0-10.678,4.782-10.678,10.678v51.115l-75.398-59.498
		c-1.885-1.486-4.213-2.295-6.614-2.295H87.664C61.219,218.895,39.703,197.38,39.703,170.933z M393.281,414.107
		c0,18.362-14.938,33.301-33.301,33.301h-97.121c-1.994,0-3.947,0.557-5.639,1.611l-53.198,33.087v-24.021
		c0-5.896-4.782-10.678-10.678-10.678h-1.668c-18.362,0-33.301-14.938-33.301-33.301v-76.211c0-18.36,14.938-33.3,33.301-33.3h1.872
		v0.467c0,29.254,21.577,53.563,49.653,57.846v49.661c0,4.092,2.337,7.824,6.02,9.609c1.481,0.718,3.072,1.069,4.657,1.069
		c2.357,0,4.694-0.78,6.615-2.295L333.2,363.58h60.082v50.527H393.281z M472.297,305.063c0,20.49-16.669,37.16-37.16,37.16H329.493
		c-2.4,0-4.73,0.809-6.614,2.295l-58.323,46.024v-37.641c0-5.896-4.781-10.678-10.678-10.678h-1.815
		c-20.49,0-37.16-16.669-37.16-37.16v-63.671l88.334,69.705c1.921,1.515,4.258,2.295,6.616,2.295c1.582,0,3.176-0.352,4.655-1.07
		c3.682-1.784,6.02-5.516,6.02-9.608v-62.978c29.58-3.611,53.447-25.933,59.41-54.731h55.198c20.49,0,37.16,16.669,37.16,37.159
		L472.297,305.063L472.297,305.063z"/>
</g>
<g>
</g>
<g>
</g>
<g>
</g>
<g>
</g>
<g>
</g>
<g>
</g>
<g>
</g>
<g>
</g>
<g>
</g>
<g>
</g>
<g>
</g>
<g>
</g>
<g>
</g>
<g>
</g>
<g>
</g>
</svg>
